<?xml version="1.0" standalone="no"?>
<!DOCTYPE svg PUBLIC "-//W3C//DTD SVG 20010904//EN"
 "http://www.w3.org/TR/2001/REC-SVG-20010904/DTD/svg10.dtd">
<svg version="1.0" xmlns="http://www.w3.org/2000/svg"
 width="500.000000pt" height="500.000000pt" viewBox="0 0 500.000000 500.000000"
 preserveAspectRatio="xMidYMid meet">

<g transform="translate(0.000000,500.000000) scale(0.100000,-0.100000)"
fill="#000000" stroke="none">
<path d="M2569 3510 c-91 -27 -147 -121 -158 -264 l-6 -69 -130 -22 c-292 -50
-414 -135 -470 -328 -9 -31 -15 -67 -13 -79 3 -15 9 -1 17 37 19 88 58 159
116 214 62 59 110 84 207 111 73 20 268 54 274 48 6 -7 25 -221 31 -363 6
-164 -5 -268 -39 -345 -81 -187 -327 -187 -411 0 -23 51 -34 176 -20 230 9 34
10 34 86 46 43 7 99 23 125 36 93 46 76 118 -27 118 -65 0 -118 -33 -164 -103
-28 -41 -45 -57 -61 -57 -71 0 -208 -69 -255 -129 -43 -55 -84 -161 -62 -161
5 0 13 15 16 33 26 117 150 220 295 243 l39 6 -11 -38 c-6 -22 -8 -68 -5 -104
16 -179 103 -273 252 -274 232 -1 328 196 296 607 -7 89 -15 185 -18 213 l-5
51 70 22 c127 38 220 121 229 204 6 53 -7 81 -50 107 -33 21 -99 25 -148 10z
m131 -15 c74 -38 65 -137 -18 -211 -35 -31 -137 -80 -184 -89 -38 -7 -38 -7
-38 26 1 64 29 170 57 212 47 69 121 94 183 62z m-496 -651 c9 -8 16 -22 16
-29 0 -30 -84 -65 -189 -80 l-54 -7 24 42 c42 75 160 118 203 74z"/>
<path d="M1385 2991 c-94 -90 -130 -117 -204 -154 -108 -54 -189 -74 -240 -58
-20 6 -58 29 -86 52 -82 69 -122 82 -235 77 -82 -3 -105 -8 -151 -32 -75 -38
-229 -138 -229 -148 0 -13 8 -10 62 32 29 22 90 59 136 82 78 40 90 43 180 46
113 4 138 -4 224 -71 35 -27 76 -49 105 -56 118 -28 315 72 505 255 50 48 72
84 52 84 -3 0 -56 -49 -119 -109z"/>
<path d="M4558 2981 c-48 -49 -169 -125 -262 -164 -68 -29 -75 -30 -181 -24
-123 7 -177 19 -283 66 -88 39 -185 61 -270 61 -100 0 -149 -17 -205 -72 -28
-26 -47 -51 -43 -55 4 -4 19 8 33 26 15 18 49 44 77 57 94 44 263 27 416 -41
86 -38 218 -66 323 -67 80 -2 152 22 253 83 89 54 188 133 192 152 5 26 -9 20
-50 -22z"/>
<path d="M2696 2979 c-64 -56 -58 -113 27 -264 l45 -80 -46 -25 c-57 -31 -92
-80 -92 -130 0 -71 58 -112 126 -90 74 25 109 113 82 207 l-15 49 65 34 c63
33 182 132 182 152 0 6 -29 -17 -65 -51 -55 -51 -181 -131 -189 -119 -1 2 -28
49 -59 105 -69 123 -75 166 -26 207 46 39 84 34 108 -12 9 -17 10 -32 2 -53
-10 -29 2 -42 13 -13 36 95 -77 155 -158 83z m90 -396 c24 -122 -20 -209 -93
-182 -80 29 -59 149 35 199 49 26 50 26 58 -17z"/>
<path d="M1188 2182 c9 -10 19 -14 21 -9 2 5 -3 13 -10 18 -24 15 -30 10 -11
-9z"/>
<path d="M1397 2189 c18 -5 39 -19 48 -31 20 -29 19 -87 -1 -118 -17 -25 -17
-25 11 1 40 38 38 94 -4 131 -19 17 -42 28 -59 27 -27 -1 -26 -1 5 -10z"/>
<path d="M1638 2106 c42 -52 80 -95 84 -95 4 -1 8 41 10 93 2 59 -1 92 -7 90
-5 -2 -8 -26 -7 -53 7 -102 3 -103 -67 -18 -35 42 -70 77 -77 77 -8 0 21 -42
64 -94z"/>
<path d="M1825 2105 c0 -57 4 -95 10 -95 6 0 9 32 7 82 l-4 83 57 -70 c90
-111 83 -110 87 -6 2 54 -1 92 -7 95 -6 2 -9 -15 -7 -43 2 -26 2 -60 0 -76 -3
-27 -6 -25 -63 48 -33 43 -64 77 -70 77 -6 0 -10 -38 -10 -95z"/>
<path d="M2085 2105 l0 -95 53 0 c43 0 52 3 51 18 0 10 -3 12 -6 5 -2 -7 -20
-13 -39 -13 -33 0 -34 1 -34 40 0 38 2 40 30 40 17 0 30 4 30 8 0 5 -13 7 -30
4 -29 -4 -30 -3 -30 37 0 38 2 41 28 41 15 0 34 -6 41 -12 10 -11 11 -10 6 5
-6 13 -19 17 -54 17 l-46 0 0 -95z"/>
<path d="M2348 2106 c42 -52 80 -95 84 -95 4 -1 8 41 10 93 2 59 -1 92 -7 90
-5 -2 -8 -26 -7 -53 7 -102 3 -103 -67 -18 -35 42 -70 77 -77 77 -8 0 21 -42
64 -94z"/>
<path d="M2736 2186 c21 -15 30 -14 19 3 -3 6 -14 11 -23 11 -13 0 -13 -2 4
-14z"/>
<path d="M2982 2178 c16 -16 24 -19 26 -10 4 16 3 18 -26 27 l-23 7 23 -24z"/>
<path d="M3239 2154 l3 -44 -56 0 -56 0 0 40 c0 25 -5 40 -12 40 -10 0 -13
-25 -13 -90 0 -65 3 -90 13 -90 8 0 12 16 12 45 l0 45 56 0 56 0 -4 -45 c-2
-35 0 -45 12 -45 12 0 14 15 12 89 -2 57 -8 91 -15 94 -8 3 -11 -9 -8 -39z"/>
<path d="M3498 2136 c5 -88 10 -100 11 -29 0 34 3 68 6 76 3 7 0 14 -8 14 -10
0 -12 -15 -9 -61z"/>
<path d="M3676 2186 c21 -15 30 -14 19 3 -3 6 -14 11 -23 11 -13 0 -13 -2 4
-14z"/>
<path d="M3868 2182 c9 -10 19 -17 21 -16 6 5 -20 34 -30 34 -5 0 -1 -8 9 -18z"/>
<path d="M1120 2171 c-14 -27 -4 -47 35 -71 39 -24 52 -54 34 -78 -7 -9 -2 -7
10 4 31 29 22 54 -30 89 -33 21 -40 31 -36 51 5 29 1 31 -13 5z"/>
<path d="M2674 2175 c-11 -27 5 -59 39 -80 20 -13 34 -31 38 -50 l6 -30 8 29
c7 25 4 33 -21 52 -59 48 -65 55 -59 75 7 22 -3 26 -11 4z"/>
<path d="M2865 2165 c-36 -35 -34 -88 4 -126 16 -16 35 -29 43 -29 8 0 7 4 -5
11 -49 29 -59 123 -14 154 12 8 16 15 9 15 -7 0 -24 -11 -37 -25z"/>
<path d="M3368 2118 c4 -87 18 -108 72 -108 24 0 42 6 51 18 11 14 11 15 -1 5
-18 -16 -72 -17 -88 -1 -7 7 -12 42 -12 85 0 52 -4 73 -12 73 -10 0 -12 -19
-10 -72z"/>
<path d="M3614 2175 c-11 -27 5 -59 39 -80 20 -13 34 -31 38 -50 l6 -30 8 29
c7 25 4 33 -21 52 -59 48 -65 55 -59 75 7 22 -3 26 -11 4z"/>
<path d="M3802 2178 c-22 -22 -12 -48 27 -76 44 -30 53 -50 38 -78 -9 -17 -9
-18 6 -5 30 24 21 65 -20 92 -29 19 -38 31 -38 52 1 15 0 27 0 27 -1 0 -6 -5
-13 -12z"/>
<path d="M1306 2158 c-25 -36 -20 -91 10 -122 15 -14 33 -26 42 -26 9 0 6 7
-11 20 -31 25 -45 81 -29 122 12 34 9 36 -12 6z"/>
<path d="M2520 2070 c-12 -8 -11 -10 5 -9 11 1 31 5 45 9 24 8 24 8 -5 9 -16
0 -37 -4 -45 -9z"/>
<path d="M2662 2040 c2 -16 10 -26 23 -28 12 -2 16 0 9 5 -6 4 -16 17 -23 28
-11 19 -11 19 -9 -5z"/>
<path d="M3602 2040 c2 -16 10 -26 23 -28 12 -2 16 0 9 5 -6 4 -16 17 -23 28
-11 19 -11 19 -9 -5z"/>
<path d="M1110 2038 c0 -9 5 -20 11 -23 17 -11 18 -2 3 19 -12 17 -14 17 -14
4z"/>
<path d="M2988 2028 c-15 -15 -16 -18 -3 -18 9 0 18 7 22 15 8 23 0 24 -19 3z"/>
<path d="M1566 2025 c-4 -10 1 -15 16 -15 17 0 18 2 8 15 -7 8 -14 15 -15 15
-2 0 -5 -7 -9 -15z"/>
<path d="M2276 2025 c-4 -10 1 -15 16 -15 17 0 18 2 8 15 -7 8 -14 15 -15 15
-2 0 -5 -7 -9 -15z"/>
<path d="M3790 2032 c0 -12 19 -26 26 -19 2 2 -2 10 -11 17 -9 8 -15 8 -15 2z"/>
</g>
</svg>
